<?xml version="1.0" encoding="utf-8"?>
<!-- Generator: Adobe Illustrator 19.0.1, SVG Export Plug-In . SVG Version: 6.00 Build 0)  -->
<svg version="1.1" xmlns="http://www.w3.org/2000/svg" xmlns:xlink="http://www.w3.org/1999/xlink" x="0px" y="0px"
	 viewBox="0 0 200 200" style="enable-background:new 0 0 200 200;" xml:space="preserve">
<style type="text/css">
	.st0{fill:#2F62AD;}
	.st1{fill:#FFFFFF;}
</style>
<g id="bg">
	<circle class="st0" cx="100" cy="100" r="72.698"/>
</g>
<g id="house">
	<path class="st1" d="M133.833,146h-22.954c-1.491,0-2.879-1.332-2.879-2.824V115H91v28.176c0,1.491-1.584,2.824-3.076,2.824H64.97
		c-1.491,0-2.97-1.332-2.97-2.824v-38.733l-0.382,0.407c-0.572,0.452-1.232,0.654-1.958,0.556c-0.722-0.095-1.342-0.477-1.778-1.061
		l-7.194-9.661c-0.882-1.183-0.644-2.855,0.525-3.755l46.493-35.798c0.985-0.76,2.076-0.746,3.047,0.031L113,65.191V59.46
		c0-1.491,1.788-2.46,3.28-2.46h12.152c1.491,0,2.568,0.969,2.568,2.46v19.262l16.589,12.175c1.18,0.87,1.484,2.522,0.644,3.722
		l-6.747,9.66c-0.413,0.588-1.033,0.988-1.742,1.112c-0.703,0.121-1.197-0.041-1.784-0.455L137,104.09v39.086
		C137,144.668,135.324,146,133.833,146z M113,141h18V98.876c0-1.009,0.629-1.934,1.525-2.398c0.898-0.464,2.008-0.39,2.834,0.192
		l3.258,2.29l3.704-5.278L126.96,82.261c-0.691-0.509-0.96-1.316-0.96-2.174V62h-7v8.81c0,1.038-0.605,1.985-1.541,2.434
		c-0.935,0.448-2.05,0.324-2.862-0.326L99.329,60.704L56.626,93.586l3.96,5.307l2.711-2.139c0.812-0.64,2.083-0.761,3.015-0.31
		C67.244,96.895,68,97.839,68,98.874V141h17v-28.879c0-1.491,1.433-3.121,2.924-3.121h22.954c1.491,0,2.121,1.629,2.121,3.121V141z"
		/>
</g>
<g id="ring">
	<path class="st0" d="M100,18c-45.287,0-82,36.713-82,82s36.713,82,82,82s82-36.713,82-82S145.287,18,100,18z M100,172.043
		c-39.788,0-72.043-32.255-72.043-72.043S60.212,27.957,100,27.957S172.043,60.212,172.043,100S139.788,172.043,100,172.043z"/>
</g>
</svg>
